<mxfile host="app.diagrams.net" modified="2024-03-05T12:05:41.766Z" agent="Mozilla/5.0 (Windows NT 10.0; Win64; x64) AppleWebKit/537.36 (KHTML, like Gecko) Chrome/122.0.0.0 Safari/537.36" etag="8i78k4wclX81kqPbzcj9" version="23.1.2" type="device">
  <diagram name="Página-1" id="hsuELPFxHfLLxTZ_H7rw">
    <mxGraphModel dx="1195" dy="622" grid="1" gridSize="10" guides="1" tooltips="1" connect="1" arrows="1" fold="1" page="1" pageScale="1" pageWidth="827" pageHeight="1169" math="0" shadow="0">
      <root>
        <mxCell id="0" />
        <mxCell id="1" parent="0" />
        <mxCell id="lAarjawHeb2gkxGMYReY-6" style="rounded=0;orthogonalLoop=1;jettySize=auto;html=1;entryX=0.5;entryY=0;entryDx=0;entryDy=0;endArrow=none;endFill=0;" edge="1" parent="1" source="lAarjawHeb2gkxGMYReY-1" target="lAarjawHeb2gkxGMYReY-4">
          <mxGeometry relative="1" as="geometry" />
        </mxCell>
        <mxCell id="lAarjawHeb2gkxGMYReY-1" value="The Original Kingdom" style="rounded=1;whiteSpace=wrap;html=1;strokeColor=#E5FF8F;fillColor=#FFFC9C;" vertex="1" parent="1">
          <mxGeometry x="342" y="20" width="156" height="60" as="geometry" />
        </mxCell>
        <mxCell id="lAarjawHeb2gkxGMYReY-35" style="edgeStyle=orthogonalEdgeStyle;rounded=0;orthogonalLoop=1;jettySize=auto;html=1;entryX=0.5;entryY=0;entryDx=0;entryDy=0;endArrow=none;endFill=0;" edge="1" parent="1" source="lAarjawHeb2gkxGMYReY-4" target="lAarjawHeb2gkxGMYReY-9">
          <mxGeometry relative="1" as="geometry" />
        </mxCell>
        <mxCell id="lAarjawHeb2gkxGMYReY-4" value="Inicia el juego" style="text;html=1;strokeColor=none;fillColor=none;align=center;verticalAlign=middle;whiteSpace=wrap;rounded=0;" vertex="1" parent="1">
          <mxGeometry x="367" y="110" width="106" height="30" as="geometry" />
        </mxCell>
        <mxCell id="lAarjawHeb2gkxGMYReY-12" style="rounded=0;orthogonalLoop=1;jettySize=auto;html=1;entryX=0.5;entryY=0;entryDx=0;entryDy=0;endArrow=open;endFill=0;edgeStyle=orthogonalEdgeStyle;exitX=0.5;exitY=1;exitDx=0;exitDy=0;" edge="1" parent="1" source="lAarjawHeb2gkxGMYReY-9" target="lAarjawHeb2gkxGMYReY-11">
          <mxGeometry relative="1" as="geometry" />
        </mxCell>
        <mxCell id="lAarjawHeb2gkxGMYReY-13" style="edgeStyle=orthogonalEdgeStyle;rounded=0;orthogonalLoop=1;jettySize=auto;html=1;entryX=0.5;entryY=0;entryDx=0;entryDy=0;endArrow=open;endFill=0;exitX=0.5;exitY=1;exitDx=0;exitDy=0;" edge="1" parent="1" source="lAarjawHeb2gkxGMYReY-9" target="lAarjawHeb2gkxGMYReY-10">
          <mxGeometry relative="1" as="geometry" />
        </mxCell>
        <mxCell id="lAarjawHeb2gkxGMYReY-9" value="Se muestra decisión" style="rhombus;whiteSpace=wrap;html=1;strokeColor=#53cce4;fillColor=#dae8fc;" vertex="1" parent="1">
          <mxGeometry x="370" y="170" width="100" height="100" as="geometry" />
        </mxCell>
        <mxCell id="lAarjawHeb2gkxGMYReY-41" style="rounded=0;orthogonalLoop=1;jettySize=auto;html=1;entryX=0;entryY=0.5;entryDx=0;entryDy=0;edgeStyle=orthogonalEdgeStyle;exitX=0.5;exitY=1;exitDx=0;exitDy=0;endArrow=open;endFill=0;" edge="1" parent="1" source="lAarjawHeb2gkxGMYReY-10" target="lAarjawHeb2gkxGMYReY-15">
          <mxGeometry relative="1" as="geometry">
            <Array as="points">
              <mxPoint x="260" y="400" />
              <mxPoint x="260" y="400" />
              <mxPoint x="260" y="475" />
            </Array>
          </mxGeometry>
        </mxCell>
        <mxCell id="lAarjawHeb2gkxGMYReY-10" value="ACEPTAR" style="rounded=0;whiteSpace=wrap;html=1;fillColor=#d5e8d4;strokeColor=#82b366;" vertex="1" parent="1">
          <mxGeometry x="200" y="320" width="120" height="60" as="geometry" />
        </mxCell>
        <mxCell id="lAarjawHeb2gkxGMYReY-42" style="edgeStyle=orthogonalEdgeStyle;rounded=0;orthogonalLoop=1;jettySize=auto;html=1;entryX=1;entryY=0.5;entryDx=0;entryDy=0;exitX=0.5;exitY=1;exitDx=0;exitDy=0;endArrow=open;endFill=0;" edge="1" parent="1" source="lAarjawHeb2gkxGMYReY-11" target="lAarjawHeb2gkxGMYReY-15">
          <mxGeometry relative="1" as="geometry" />
        </mxCell>
        <mxCell id="lAarjawHeb2gkxGMYReY-11" value="DENEGAR" style="rounded=0;whiteSpace=wrap;html=1;fillColor=#f8cecc;strokeColor=#b85450;" vertex="1" parent="1">
          <mxGeometry x="520" y="320" width="120" height="60" as="geometry" />
        </mxCell>
        <mxCell id="lAarjawHeb2gkxGMYReY-28" style="rounded=0;orthogonalLoop=1;jettySize=auto;html=1;endArrow=open;endFill=0;" edge="1" parent="1" source="lAarjawHeb2gkxGMYReY-15" target="lAarjawHeb2gkxGMYReY-22">
          <mxGeometry relative="1" as="geometry" />
        </mxCell>
        <mxCell id="lAarjawHeb2gkxGMYReY-32" style="rounded=0;orthogonalLoop=1;jettySize=auto;html=1;endArrow=open;endFill=0;" edge="1" parent="1" source="lAarjawHeb2gkxGMYReY-15" target="lAarjawHeb2gkxGMYReY-31">
          <mxGeometry relative="1" as="geometry" />
        </mxCell>
        <mxCell id="lAarjawHeb2gkxGMYReY-15" value="&lt;div style=&quot;&quot;&gt;&lt;span style=&quot;background-color: initial;&quot;&gt;Se&lt;/span&gt;&lt;/div&gt;&lt;div style=&quot;&quot;&gt;&lt;span style=&quot;background-color: initial;&quot;&gt;suman / restan&lt;/span&gt;&lt;/div&gt;&lt;div style=&quot;&quot;&gt;&lt;span style=&quot;background-color: initial;&quot;&gt;los puntos de las facciones&lt;/span&gt;&lt;/div&gt;" style="rhombus;whiteSpace=wrap;html=1;strokeColor=#6c8ebf;fillColor=#dae8fc;align=center;" vertex="1" parent="1">
          <mxGeometry x="355" y="410" width="130" height="130" as="geometry" />
        </mxCell>
        <mxCell id="lAarjawHeb2gkxGMYReY-40" style="edgeStyle=orthogonalEdgeStyle;rounded=0;orthogonalLoop=1;jettySize=auto;html=1;entryX=0;entryY=0.5;entryDx=0;entryDy=0;dashed=1;endArrow=block;endFill=0;" edge="1" parent="1" source="lAarjawHeb2gkxGMYReY-22" target="lAarjawHeb2gkxGMYReY-9">
          <mxGeometry relative="1" as="geometry">
            <Array as="points">
              <mxPoint x="160" y="600" />
              <mxPoint x="160" y="220" />
            </Array>
          </mxGeometry>
        </mxCell>
        <mxCell id="lAarjawHeb2gkxGMYReY-22" value="Si los puntos de todas las facciones se mantienen por encima de 0" style="ellipse;whiteSpace=wrap;html=1;fillColor=#FFFFFF;fontColor=#333333;strokeColor=#0F6612;" vertex="1" parent="1">
          <mxGeometry x="241" y="560" width="120" height="80" as="geometry" />
        </mxCell>
        <mxCell id="lAarjawHeb2gkxGMYReY-44" style="edgeStyle=orthogonalEdgeStyle;rounded=0;orthogonalLoop=1;jettySize=auto;html=1;entryX=0.5;entryY=0;entryDx=0;entryDy=0;dashed=1;" edge="1" parent="1" source="lAarjawHeb2gkxGMYReY-31" target="lAarjawHeb2gkxGMYReY-43">
          <mxGeometry relative="1" as="geometry" />
        </mxCell>
        <mxCell id="lAarjawHeb2gkxGMYReY-31" value="SI los puntos de alguna de las facciones llega a 0" style="ellipse;whiteSpace=wrap;html=1;fillColor=#FFFFFF;fontColor=#333333;strokeColor=#661C1C;" vertex="1" parent="1">
          <mxGeometry x="479" y="560" width="120" height="80" as="geometry" />
        </mxCell>
        <mxCell id="lAarjawHeb2gkxGMYReY-45" style="edgeStyle=orthogonalEdgeStyle;rounded=0;orthogonalLoop=1;jettySize=auto;html=1;entryX=1;entryY=0.5;entryDx=0;entryDy=0;dashed=1;endArrow=block;endFill=0;" edge="1" parent="1" source="lAarjawHeb2gkxGMYReY-43" target="lAarjawHeb2gkxGMYReY-1">
          <mxGeometry relative="1" as="geometry">
            <Array as="points">
              <mxPoint x="670" y="740" />
              <mxPoint x="670" y="50" />
            </Array>
          </mxGeometry>
        </mxCell>
        <mxCell id="lAarjawHeb2gkxGMYReY-43" value="&lt;div style=&quot;&quot;&gt;&lt;span style=&quot;background-color: initial;&quot;&gt;&lt;b&gt;La partida termina.&lt;br&gt;&lt;/b&gt;&lt;br&gt;&lt;div style=&quot;&quot;&gt;&lt;span style=&quot;background-color: initial;&quot;&gt;La puntuación y todos los datos relevantes se suben al perfil del usuario.&lt;/span&gt;&lt;/div&gt;&lt;/span&gt;&lt;/div&gt;" style="rounded=1;whiteSpace=wrap;html=1;align=center;fillColor=#f5f5f5;fontColor=#333333;strokeColor=#666666;" vertex="1" parent="1">
          <mxGeometry x="443.5" y="680" width="191" height="120" as="geometry" />
        </mxCell>
      </root>
    </mxGraphModel>
  </diagram>
</mxfile>
